<?xml version="1.0" encoding="UTF-8"?>
<!DOCTYPE svg PUBLIC "-//W3C//DTD SVG 1.1//EN" "http://www.w3.org/Graphics/SVG/1.1/DTD/svg11.dtd">
<svg xmlns="http://www.w3.org/2000/svg" version="1.1" width="244px" height="83px" style="shape-rendering:geometricPrecision; text-rendering:geometricPrecision; image-rendering:optimizeQuality; fill-rule:evenodd; clip-rule:evenodd" xmlns:xlink="http://www.w3.org/1999/xlink">
<g><path style="opacity:0.959" fill="#f6a122" d="M 30.5,15.5 C 37.1998,15.17 43.8665,15.5033 50.5,16.5C 49.1389,18.8505 47.8056,21.1838 46.5,23.5C 44.629,23.1412 43.129,22.1412 42,20.5C 41.6667,20.8333 41.3333,21.1667 41,21.5C 38.2595,20.7178 35.4262,20.2178 32.5,20C 30.3498,18.8077 29.6832,17.3077 30.5,15.5 Z"/></g>
<g><path style="opacity:0.985" fill="#62bec9" d="M 58.5,21.5 C 56.1667,21.5 53.8333,21.5 51.5,21.5C 51.4734,15.9841 53.64,14.6508 58,17.5C 58.49,18.7932 58.6567,20.1266 58.5,21.5 Z"/></g>
<g><path style="opacity:0.996" fill="#e99d29" d="M 30.5,15.5 C 29.6832,17.3077 30.3498,18.8077 32.5,20C 35.4262,20.2178 38.2595,20.7178 41,21.5C 41.3333,21.1667 41.6667,20.8333 42,20.5C 43.129,22.1412 44.629,23.1412 46.5,23.5C 44.1667,27.5 41.8333,31.5 39.5,35.5C 36.7026,35.0334 35.3692,33.3667 35.5,30.5C 36.295,27.5766 37.6284,24.9099 39.5,22.5C 35.8333,21.8333 32.1667,21.1667 28.5,20.5C 27.0499,19.1502 26.3832,17.4835 26.5,15.5C 27.8333,15.5 29.1667,15.5 30.5,15.5 Z"/></g>
<g><path style="opacity:1" fill="#a1a6a3" d="M 51.5,21.5 C 53.8333,21.5 56.1667,21.5 58.5,21.5C 57.8658,22.9468 56.6991,23.6134 55,23.5C 53.3009,23.6134 52.1342,22.9468 51.5,21.5 Z"/></g>
<g><path style="opacity:0.593" fill="#000000" d="M 157.5,22.5 C 159.665,22.1159 161.332,22.7826 162.5,24.5C 161.332,26.2174 159.665,26.8841 157.5,26.5C 157.5,25.1667 157.5,23.8333 157.5,22.5 Z"/></g>
<g><path style="opacity:0.73" fill="#000000" d="M 221.5,22.5 C 222.5,22.5 223.5,22.5 224.5,22.5C 224.334,30.5069 224.5,38.5069 225,46.5C 225.75,47.1258 226.584,47.6258 227.5,48C 224.5,48.6667 221.5,48.6667 218.5,48C 219,47.5 219.5,47 220,46.5C 220.667,39.8333 220.667,33.1667 220,26.5C 219.5,26 219,25.5 218.5,25C 219.571,24.1482 220.571,23.3149 221.5,22.5 Z"/></g>
<g><path style="opacity:0.706" fill="#000000" d="M 66.5,23.5 C 70.5138,23.3345 74.5138,23.5012 78.5,24C 77.4366,25.1882 76.1033,25.6882 74.5,25.5C 74.6663,32.175 74.4996,38.8417 74,45.5C 71.8387,49.1241 68.672,50.2907 64.5,49C 61.6919,46.7855 62.0252,45.2855 65.5,44.5C 67.0879,45.0096 68.2545,46.0096 69,47.5C 69.4997,40.1742 69.6663,32.8409 69.5,25.5C 67.8212,25.7148 66.8212,25.0481 66.5,23.5 Z"/></g>
<g><path style="opacity:0.75" fill="#000000" d="M 79.5,24.5 C 83.3507,23.1905 87.3507,23.1905 91.5,24.5C 90.675,25.3857 89.675,25.719 88.5,25.5C 88.3337,32.5079 88.5004,39.5079 89,46.5C 89.7504,47.1258 90.5838,47.6258 91.5,48C 87.5,48.6667 83.5,48.6667 79.5,48C 80.7659,47.6905 81.9326,47.1905 83,46.5C 83.6667,39.8333 83.6667,33.1667 83,26.5C 81.8873,25.695 80.7206,25.0283 79.5,24.5 Z"/></g>
<g><path style="opacity:0.704" fill="#000000" d="M 93.5,24.5 C 96.3035,23.3622 99.3035,23.1955 102.5,24C 104.935,29.7037 107.769,35.2037 111,40.5C 113.403,35.124 115.903,29.7907 118.5,24.5C 121.446,23.3452 124.446,23.1786 127.5,24C 126.421,24.956 125.255,25.7894 124,26.5C 123.333,33.1667 123.333,39.8333 124,46.5C 125.067,47.1905 126.234,47.6905 127.5,48C 123.5,48.6667 119.5,48.6667 115.5,48C 116.416,47.6258 117.25,47.1258 118,46.5C 118.667,41.8333 118.667,37.1667 118,32.5C 115.434,38.0788 112.601,43.4121 109.5,48.5C 106.399,43.4121 103.566,38.0788 101,32.5C 100.333,37.1667 100.333,41.8333 101,46.5C 101.75,47.1258 102.584,47.6258 103.5,48C 100.167,48.6667 96.8333,48.6667 93.5,48C 94.7659,47.6905 95.9326,47.1905 97,46.5C 97.6667,39.8333 97.6667,33.1667 97,26.5C 95.8873,25.695 94.7206,25.0283 93.5,24.5 Z"/></g>
<g><path style="opacity:0.676" fill="#000000" d="M 128.5,23.5 C 132.514,23.3345 136.514,23.5012 140.5,24C 139.5,24.8333 138.5,25.6667 137.5,26.5C 139.431,31.1271 141.265,35.7938 143,40.5C 145.029,36.0803 146.862,31.5803 148.5,27C 147.978,26.0497 147.311,25.2164 146.5,24.5C 149.167,23.1667 151.833,23.1667 154.5,24.5C 152.282,25.9242 150.782,27.9242 150,30.5C 147.791,36.9618 145.291,43.2952 142.5,49.5C 141.201,48.91 140.368,47.91 140,46.5C 137.333,39.8333 134.667,33.1667 132,26.5C 130.271,26.0257 129.105,25.0257 128.5,23.5 Z"/></g>
<g><path style="opacity:1" fill="#bbb176" d="M 7.5,15.5 C 9.16667,17.8333 11.1667,19.8333 13.5,21.5C 15.1667,24.8333 16.8333,28.1667 18.5,31.5C 18.631,32.2389 18.4643,32.9056 18,33.5C 13.9131,30.084 10.5797,26.084 8,21.5C 7.51722,22.448 7.35055,23.448 7.5,24.5C 5.85825,21.8975 4.19159,19.2308 2.5,16.5C 4.04533,15.5481 5.71199,15.2148 7.5,15.5 Z"/></g>
<g><path style="opacity:1" fill="#a7b58d" d="M 18.5,31.5 C 20.0828,33.6626 21.4161,35.9959 22.5,38.5C 22.5654,38.9382 22.3988,39.2716 22,39.5C 19.2208,36.7208 16.3874,33.8874 13.5,31C 12.552,30.5172 11.552,30.3505 10.5,30.5C 9.5,28.5 8.5,26.5 7.5,24.5C 7.35055,23.448 7.51722,22.448 8,21.5C 10.5797,26.084 13.9131,30.084 18,33.5C 18.4643,32.9056 18.631,32.2389 18.5,31.5 Z"/></g>
<g><path style="opacity:0.805" fill="#000000" d="M 160.5,30.5 C 161.326,35.3165 161.826,40.3165 162,45.5C 162.5,46.6667 163.333,47.5 164.5,48C 161.5,48.6667 158.5,48.6667 155.5,48C 157.756,46.0756 158.756,43.5756 158.5,40.5C 158.846,37.5701 157.846,35.2368 155.5,33.5C 157.145,32.3037 158.811,31.3037 160.5,30.5 Z"/></g>
<g><path style="opacity:0.602" fill="#000000" d="M 171.5,30.5 C 173.379,31.3414 175.379,31.6747 177.5,31.5C 177.799,33.604 177.466,35.604 176.5,37.5C 175.185,35.6841 173.685,34.0175 172,32.5C 171.075,33.0465 170.242,33.7132 169.5,34.5C 171.687,36.8495 174.187,38.8495 177,40.5C 179.291,43.8347 178.791,46.668 175.5,49C 172.469,49.4954 169.469,49.3287 166.5,48.5C 166.201,46.396 166.534,44.396 167.5,42.5C 168.159,45.1591 169.826,46.8257 172.5,47.5C 173.72,47.1131 174.387,46.2798 174.5,45C 172.126,42.7233 169.626,40.5566 167,38.5C 165.797,34.2223 167.297,31.5556 171.5,30.5 Z"/></g>
<g><path style="opacity:0.667" fill="#000000" d="M 207.5,30.5 C 209.441,30.8693 211.275,31.536 213,32.5C 213.333,36.8333 213.667,41.1667 214,45.5C 215.147,46.4581 216.147,46.1247 217,44.5C 217.502,47.7146 216.002,49.3812 212.5,49.5C 211.353,49.1822 210.519,48.5156 210,47.5C 203.626,51.325 200.626,49.6583 201,42.5C 203.626,39.7692 206.793,37.9358 210.5,37C 208.192,31.2969 206.192,31.2969 204.5,37C 203.552,37.4828 202.552,37.6495 201.5,37.5C 201.215,35.712 201.548,34.0453 202.5,32.5C 204.336,31.9724 206.003,31.3058 207.5,30.5 Z M 208.5,39.5 C 209.649,39.7911 210.316,40.6244 210.5,42C 210.457,44.3759 209.291,45.8759 207,46.5C 205.5,46.3333 204.667,45.5 204.5,44C 205.344,41.9933 206.677,40.4933 208.5,39.5 Z"/></g>
<g><path style="opacity:0.63" fill="#000000" d="M 233.5,30.5 C 235.435,31.1495 237.435,31.4828 239.5,31.5C 239.662,33.5273 239.495,35.5273 239,37.5C 237.974,34.3072 235.808,32.9738 232.5,33.5C 232.281,34.675 232.614,35.675 233.5,36.5C 235.799,37.6351 237.966,38.9684 240,40.5C 241.455,48.3761 238.288,51.0428 230.5,48.5C 228.763,41.2945 229.763,40.7945 233.5,47C 235.319,47.7828 236.652,47.2828 237.5,45.5C 235.678,42.67 233.178,40.67 230,39.5C 229.333,37.1667 229.333,34.8333 230,32.5C 231.302,31.9152 232.469,31.2485 233.5,30.5 Z"/></g>
<g><path style="opacity:1" fill="#d8a54b" d="M 7.5,15.5 C 12.1785,15.3342 16.8452,15.5008 21.5,16C 24.8055,22.1223 28.4721,27.9557 32.5,33.5C 33.735,32.6602 34.735,31.6602 35.5,30.5C 35.3692,33.3667 36.7026,35.0334 39.5,35.5C 38.4196,37.9962 37.0862,40.3295 35.5,42.5C 31.4934,39.8181 27.8267,36.8181 24.5,33.5C 22.3596,29.8965 20.193,26.2299 18,22.5C 16.6439,21.6198 15.1439,21.2865 13.5,21.5C 11.1667,19.8333 9.16667,17.8333 7.5,15.5 Z"/></g>
<g><path style="opacity:0.668" fill="#000000" d="M 179.5,32.5 C 181.607,31.5318 183.941,31.1984 186.5,31.5C 186.334,36.1785 186.501,40.8452 187,45.5C 191.789,46.3621 193.622,44.1954 192.5,39C 192.569,36.0931 191.569,33.7597 189.5,32C 191.81,31.5034 194.143,31.3367 196.5,31.5C 196.5,36.1667 196.5,40.8333 196.5,45.5C 197.675,45.281 198.675,45.6143 199.5,46.5C 197.029,49.3977 194.529,49.731 192,47.5C 188.925,50.0594 185.925,50.0594 183,47.5C 182.828,42.7982 182.328,38.1315 181.5,33.5C 180.817,33.1373 180.15,32.8039 179.5,32.5 Z"/></g>
<g><path style="opacity:1" fill="#8eb6a4" d="M 10.5,30.5 C 11.552,30.3505 12.552,30.5172 13.5,31C 16.3874,33.8874 19.2208,36.7208 22,39.5C 22.3988,39.2716 22.5654,38.9382 22.5,38.5C 23.9313,39.7804 24.5979,41.4471 24.5,43.5C 22.076,43.8076 19.7427,43.4742 17.5,42.5C 15.155,38.4725 12.8217,34.4725 10.5,30.5 Z"/></g>
<g><path style="opacity:0.949" fill="#b3a8a2" d="M 50.5,36.5 C 49.8333,33.5 49.1667,30.5 48.5,27.5C 49.4919,25.9735 50.9919,25.3068 53,25.5C 54.1667,25.8333 55.3333,26.1667 56.5,26.5C 54.4741,29.8968 52.4741,33.2301 50.5,36.5 Z"/></g>
<g><path style="opacity:0.997" fill="#7fb2b7" d="M 48.5,27.5 C 49.1667,30.5 49.8333,33.5 50.5,36.5C 48.1517,40.5355 45.8184,44.5355 43.5,48.5C 43.8128,44.9581 43.4794,41.6248 42.5,38.5C 44.2336,34.7004 46.2336,31.0337 48.5,27.5 Z"/></g>
<g><path style="opacity:1" fill="#b8a565" d="M 24.5,33.5 C 27.8267,36.8181 31.4934,39.8181 35.5,42.5C 35.0739,44.9575 33.7406,46.1242 31.5,46C 28.7745,42.0485 26.4411,37.8818 24.5,33.5 Z"/></g>
<g><path style="opacity:0.994" fill="#59b8c4" d="M 42.5,38.5 C 43.4794,41.6248 43.8128,44.9581 43.5,48.5C 40.3321,54.8417 36.6654,60.8417 32.5,66.5C 29.5185,63.2173 27.0185,59.5507 25,55.5C 23.1909,52.2221 21.6909,48.8888 20.5,45.5C 22.924,45.1924 25.2573,45.5258 27.5,46.5C 29.1667,49.1667 30.8333,51.8333 32.5,54.5C 35.8583,49.1025 39.1916,43.7692 42.5,38.5 Z"/></g>
</svg>
